<mxfile host="app.diagrams.net" agent="Mozilla/5.0 (Windows NT 10.0; Win64; x64) AppleWebKit/537.36 (KHTML, like Gecko) Chrome/128.0.0.0 Safari/537.36 Edg/128.0.0.0" version="24.7.12">
  <diagram name="Page-1" id="JujiUXlHYYviSk_YV650">
    <mxGraphModel dx="6531" dy="5366" grid="0" gridSize="10" guides="1" tooltips="1" connect="1" arrows="1" fold="1" page="1" pageScale="1" pageWidth="827" pageHeight="1169" math="0" shadow="0">
      <root>
        <mxCell id="0" />
        <mxCell id="1" parent="0" />
        <mxCell id="GOBRRxdw49ANM1FNrent-1" value="" style="rounded=0;whiteSpace=wrap;html=1;fillColor=none;" vertex="1" parent="1">
          <mxGeometry x="200" y="160" width="2090" height="1475" as="geometry" />
        </mxCell>
        <mxCell id="GOBRRxdw49ANM1FNrent-2" value="" style="rounded=0;whiteSpace=wrap;html=1;rotation=90;fillColor=#67AB9F;strokeColor=#67AB9F;" vertex="1" parent="1">
          <mxGeometry x="1234.5" y="579" width="21" height="2090" as="geometry" />
        </mxCell>
        <mxCell id="GOBRRxdw49ANM1FNrent-3" value="" style="rounded=0;whiteSpace=wrap;html=1;rotation=90;fillColor=#67AB9F;strokeColor=#67AB9F;" vertex="1" parent="1">
          <mxGeometry x="1235" y="-875" width="21" height="2090" as="geometry" />
        </mxCell>
        <mxCell id="GOBRRxdw49ANM1FNrent-4" value="" style="rounded=0;whiteSpace=wrap;html=1;rotation=0;fillColor=#D5E8D4;strokeColor=#D5E8D4;" vertex="1" parent="1">
          <mxGeometry x="201" y="181" width="21" height="1433" as="geometry" />
        </mxCell>
        <mxCell id="GOBRRxdw49ANM1FNrent-5" value="" style="rounded=0;whiteSpace=wrap;html=1;rotation=0;fillColor=#D5E8D4;strokeColor=#D5E8D4;" vertex="1" parent="1">
          <mxGeometry x="2269" y="181" width="21" height="1433" as="geometry" />
        </mxCell>
        <mxCell id="GOBRRxdw49ANM1FNrent-6" value="" style="rounded=0;whiteSpace=wrap;html=1;rotation=0;fillColor=#6666FF;strokeColor=#6666FF;" vertex="1" parent="1">
          <mxGeometry x="1870" y="181" width="30" height="1433" as="geometry" />
        </mxCell>
        <mxCell id="GOBRRxdw49ANM1FNrent-7" value="" style="rounded=0;whiteSpace=wrap;html=1;rotation=0;fillColor=#D5E8D4;strokeColor=#D5E8D4;" vertex="1" parent="1">
          <mxGeometry x="790" y="-1295" width="1500" height="1433" as="geometry" />
        </mxCell>
        <mxCell id="GOBRRxdw49ANM1FNrent-8" value="" style="rounded=0;whiteSpace=wrap;html=1;rotation=0;fillColor=#D5E8D4;strokeColor=#D5E8D4;" vertex="1" parent="1">
          <mxGeometry x="-247" y="202" width="21" height="1433" as="geometry" />
        </mxCell>
        <mxCell id="GOBRRxdw49ANM1FNrent-9" value="" style="rounded=0;whiteSpace=wrap;html=1;rotation=0;fillColor=#EA6B66;strokeColor=#D5E8D4;" vertex="1" parent="1">
          <mxGeometry x="2219" y="1085" width="50" height="351" as="geometry" />
        </mxCell>
        <mxCell id="GOBRRxdw49ANM1FNrent-10" value="" style="rounded=0;whiteSpace=wrap;html=1;rotation=0;fillColor=#6666FF;strokeColor=#6666FF;" vertex="1" parent="1">
          <mxGeometry x="1470" y="181" width="30" height="1433" as="geometry" />
        </mxCell>
        <mxCell id="GOBRRxdw49ANM1FNrent-11" value="" style="rounded=0;whiteSpace=wrap;html=1;rotation=0;fillColor=#6666FF;strokeColor=#6666FF;" vertex="1" parent="1">
          <mxGeometry x="1790" y="181" width="30" height="1433" as="geometry" />
        </mxCell>
        <mxCell id="GOBRRxdw49ANM1FNrent-12" value="" style="rounded=0;whiteSpace=wrap;html=1;rotation=0;fillColor=#6666FF;strokeColor=#6666FF;" vertex="1" parent="1">
          <mxGeometry x="2189" y="181" width="30" height="1433" as="geometry" />
        </mxCell>
        <mxCell id="GOBRRxdw49ANM1FNrent-13" value="" style="rounded=0;whiteSpace=wrap;html=1;rotation=0;fillColor=#6666FF;strokeColor=#6666FF;" vertex="1" parent="1">
          <mxGeometry x="1630" y="181" width="30" height="1433" as="geometry" />
        </mxCell>
        <mxCell id="GOBRRxdw49ANM1FNrent-14" value="" style="rounded=0;whiteSpace=wrap;html=1;rotation=0;fillColor=#6666FF;strokeColor=#6666FF;" vertex="1" parent="1">
          <mxGeometry x="1710" y="181" width="30" height="1433" as="geometry" />
        </mxCell>
        <mxCell id="GOBRRxdw49ANM1FNrent-15" value="" style="rounded=0;whiteSpace=wrap;html=1;rotation=0;fillColor=#6666FF;strokeColor=#6666FF;" vertex="1" parent="1">
          <mxGeometry x="1550" y="181" width="30" height="1433" as="geometry" />
        </mxCell>
        <mxCell id="GOBRRxdw49ANM1FNrent-16" value="" style="rounded=0;whiteSpace=wrap;html=1;rotation=0;fillColor=#6666FF;strokeColor=#6666FF;" vertex="1" parent="1">
          <mxGeometry x="2029" y="181" width="30" height="1433" as="geometry" />
        </mxCell>
        <mxCell id="GOBRRxdw49ANM1FNrent-17" value="" style="rounded=0;whiteSpace=wrap;html=1;rotation=0;fillColor=#6666FF;strokeColor=#6666FF;" vertex="1" parent="1">
          <mxGeometry x="1949" y="181" width="30" height="1433" as="geometry" />
        </mxCell>
        <mxCell id="GOBRRxdw49ANM1FNrent-18" value="" style="rounded=0;whiteSpace=wrap;html=1;rotation=0;fillColor=#6666FF;strokeColor=#6666FF;" vertex="1" parent="1">
          <mxGeometry x="2109" y="181" width="30" height="1433" as="geometry" />
        </mxCell>
        <mxCell id="GOBRRxdw49ANM1FNrent-21" value="" style="rounded=0;whiteSpace=wrap;html=1;rotation=0;fillColor=#EA6B66;strokeColor=#D5E8D4;" vertex="1" parent="1">
          <mxGeometry x="2140" y="841" width="48" height="351" as="geometry" />
        </mxCell>
        <mxCell id="GOBRRxdw49ANM1FNrent-22" value="" style="rounded=0;whiteSpace=wrap;html=1;rotation=0;fillColor=#EA6B66;strokeColor=#D5E8D4;" vertex="1" parent="1">
          <mxGeometry x="222" y="885" width="50" height="351" as="geometry" />
        </mxCell>
        <mxCell id="GOBRRxdw49ANM1FNrent-33" value="" style="rounded=0;whiteSpace=wrap;html=1;rotation=0;fillColor=#6666FF;strokeColor=#6666FF;" vertex="1" parent="1">
          <mxGeometry x="1071" y="181" width="30" height="1433" as="geometry" />
        </mxCell>
        <mxCell id="GOBRRxdw49ANM1FNrent-34" value="" style="rounded=0;whiteSpace=wrap;html=1;rotation=0;fillColor=#6666FF;strokeColor=#6666FF;" vertex="1" parent="1">
          <mxGeometry x="671" y="181" width="30" height="1433" as="geometry" />
        </mxCell>
        <mxCell id="GOBRRxdw49ANM1FNrent-35" value="" style="rounded=0;whiteSpace=wrap;html=1;rotation=0;fillColor=#6666FF;strokeColor=#6666FF;" vertex="1" parent="1">
          <mxGeometry x="991" y="181" width="30" height="1433" as="geometry" />
        </mxCell>
        <mxCell id="GOBRRxdw49ANM1FNrent-36" value="" style="rounded=0;whiteSpace=wrap;html=1;rotation=0;fillColor=#6666FF;strokeColor=#6666FF;" vertex="1" parent="1">
          <mxGeometry x="1390" y="181" width="30" height="1433" as="geometry" />
        </mxCell>
        <mxCell id="GOBRRxdw49ANM1FNrent-37" value="" style="rounded=0;whiteSpace=wrap;html=1;rotation=0;fillColor=#6666FF;strokeColor=#6666FF;" vertex="1" parent="1">
          <mxGeometry x="831" y="181" width="30" height="1433" as="geometry" />
        </mxCell>
        <mxCell id="GOBRRxdw49ANM1FNrent-38" value="" style="rounded=0;whiteSpace=wrap;html=1;rotation=0;fillColor=#6666FF;strokeColor=#6666FF;" vertex="1" parent="1">
          <mxGeometry x="911" y="181" width="30" height="1433" as="geometry" />
        </mxCell>
        <mxCell id="GOBRRxdw49ANM1FNrent-39" value="" style="rounded=0;whiteSpace=wrap;html=1;rotation=0;fillColor=#6666FF;strokeColor=#6666FF;" vertex="1" parent="1">
          <mxGeometry x="751" y="181" width="30" height="1433" as="geometry" />
        </mxCell>
        <mxCell id="GOBRRxdw49ANM1FNrent-40" value="" style="rounded=0;whiteSpace=wrap;html=1;rotation=0;fillColor=#6666FF;strokeColor=#6666FF;" vertex="1" parent="1">
          <mxGeometry x="1231" y="181" width="30" height="1433" as="geometry" />
        </mxCell>
        <mxCell id="GOBRRxdw49ANM1FNrent-41" value="" style="rounded=0;whiteSpace=wrap;html=1;rotation=0;fillColor=#6666FF;strokeColor=#6666FF;" vertex="1" parent="1">
          <mxGeometry x="1151" y="181" width="30" height="1433" as="geometry" />
        </mxCell>
        <mxCell id="GOBRRxdw49ANM1FNrent-42" value="" style="rounded=0;whiteSpace=wrap;html=1;rotation=0;fillColor=#6666FF;strokeColor=#6666FF;" vertex="1" parent="1">
          <mxGeometry x="1310" y="181" width="30" height="1433" as="geometry" />
        </mxCell>
        <mxCell id="GOBRRxdw49ANM1FNrent-43" value="" style="rounded=0;whiteSpace=wrap;html=1;rotation=0;fillColor=#6666FF;strokeColor=#6666FF;" vertex="1" parent="1">
          <mxGeometry x="272" y="181" width="30" height="1433" as="geometry" />
        </mxCell>
        <mxCell id="GOBRRxdw49ANM1FNrent-44" value="" style="rounded=0;whiteSpace=wrap;html=1;rotation=0;fillColor=#6666FF;strokeColor=#6666FF;" vertex="1" parent="1">
          <mxGeometry x="592" y="181" width="30" height="1433" as="geometry" />
        </mxCell>
        <mxCell id="GOBRRxdw49ANM1FNrent-45" value="" style="rounded=0;whiteSpace=wrap;html=1;rotation=0;fillColor=#6666FF;strokeColor=#6666FF;" vertex="1" parent="1">
          <mxGeometry x="432" y="181" width="30" height="1433" as="geometry" />
        </mxCell>
        <mxCell id="GOBRRxdw49ANM1FNrent-46" value="" style="rounded=0;whiteSpace=wrap;html=1;rotation=0;fillColor=#6666FF;strokeColor=#6666FF;" vertex="1" parent="1">
          <mxGeometry x="512" y="181" width="30" height="1433" as="geometry" />
        </mxCell>
        <mxCell id="GOBRRxdw49ANM1FNrent-47" value="" style="rounded=0;whiteSpace=wrap;html=1;rotation=0;fillColor=#6666FF;strokeColor=#6666FF;" vertex="1" parent="1">
          <mxGeometry x="352" y="181" width="30" height="1433" as="geometry" />
        </mxCell>
      </root>
    </mxGraphModel>
  </diagram>
</mxfile>
